<?xml version="1.0" encoding="UTF-8"?>
<!DOCTYPE svg PUBLIC "-//W3C//DTD SVG 1.1//EN" "http://www.w3.org/Graphics/SVG/1.1/DTD/svg11.dtd">
<!-- Creator: CorelDRAW -->
<svg xmlns="http://www.w3.org/2000/svg" xml:space="preserve" width="222.308mm" height="137.02mm" version="1.1" style="shape-rendering:geometricPrecision; text-rendering:geometricPrecision; image-rendering:optimizeQuality; fill-rule:evenodd; clip-rule:evenodd"
viewBox="0 0 22229.72 13701.35"
 xmlns:xlink="http://www.w3.org/1999/xlink"
 xmlns:xodm="http://www.corel.com/coreldraw/odm/2003">
 <defs>
  <style type="text/css">
   <![CDATA[
    .fil3 {fill:black}
    .fil2 {fill:#0998F0}
    .fil0 {fill:black;fill-rule:nonzero}
    .fil1 {fill:#0998F0;fill-rule:nonzero}
   ]]>
  </style>
 </defs>
 <g id="Camada_x0020_1">
  <metadata id="CorelCorpID_0Corel-Layer"/>
  <polygon class="fil0" points="-0,7885.01 -0,5816.34 517.17,5816.34 517.17,7367.85 2327.26,7367.85 2327.26,7885.01 "/>
  <path class="fil1" d="M3087.83 7885.01l-517.86 -517.17 0 -1551.51 517.17 517.17 0 1034.34 1552.89 0 517.86 517.17 -2070.05 0zm2328.64 0l-517.17 -517.17 0 -1034.34 -1552.89 0 -517.86 -517.17 2587.91 0 0 2068.67z"/>
  <path class="fil0" d="M7725.79 7885.01l-1034.34 -1034.33 775.75 0 1034.34 1034.33 -775.75 0zm-2068.67 0l0 -2068.67 2585.84 0 0 517.17 -2068.67 0 0 1034.34 775.75 0 517.17 517.17 -1810.08 0z"/>
  <g id="_1654642063600">
   <polygon class="fil2" points="15691.92,7611.57 13227.85,9511.05 14038.69,5920.15 16491.27,4071.5 "/>
   <path class="fil3" d="M11575.48 0l-2363.64 2871.26 294.5 0 601 0 3620.73 0 37.94 -166.43 -2.97 1.92 617 -2706.75 -2804.56 0zm3151.64 2871.26l0.08 0 2035.15 0 5.43 0 307.74 -1362.82 5.97 -4.51 339.59 -1503.94 -10.43 0 -2035.15 0 -0.03 0 -439.88 1947.96 -208.47 923.31zm2740.95 0l0.08 0 582.25 0 33.32 0 -743.32 560.23 -804.55 3529.51 4987.11 -3888.81c1321.82,-1277.35 722.33,-3072.19 -1237.98,-3072.19l-870.99 0 -726.55 0 -564.84 0 -197.96 868.45 -277.3 1216.39 -179.27 786.42z"/>
   <path class="fil3" d="M19535.54 13701.35l2206.01 -2871.26 -5407.92 0 -2702.2 1837.76 -1466.4 -1837.76 -237.45 0 -582.25 0 -33.33 0 743.29 -560.23 804.53 -3529.51 -4987.11 3888.81c-1321.81,1277.35 -722.32,3072.19 1238,3072.19l870.99 0 726.55 0 564.84 0 403.4 0 308.55 0 2035.15 0 986.15 0c1509.74,0 3019.46,0 4529.19,0zm-3730.02 -2871.26l-150.83 0 -986.15 0 -1975.39 0 1094.85 1372.11 2017.52 -1372.11z"/>
  </g>
 </g>
</svg>
